<?xml version="1.0" encoding="utf-8"?>
<!-- Generator: Adobe Illustrator 13.0.0, SVG Export Plug-In . SVG Version: 6.00 Build 14948)  -->
<!DOCTYPE svg PUBLIC "-//W3C//DTD SVG 1.1//EN" "http://www.w3.org/Graphics/SVG/1.1/DTD/svg11.dtd">
<svg version="1.1"
	 id="svg2" xmlns:dc="http://purl.org/dc/elements/1.1/" xmlns:cc="http://creativecommons.org/ns#" xmlns:svg="http://www.w3.org/2000/svg" xmlns:rdf="http://www.w3.org/1999/02/22-rdf-syntax-ns#"
	 xmlns="http://www.w3.org/2000/svg" xmlns:xlink="http://www.w3.org/1999/xlink" x="0px" y="0px" width="1158.613px"
	 height="727.688px" viewBox="0 0 1158.613 727.688" enable-background="new 0 0 1158.613 727.688" xml:space="preserve">
<g id="g10" transform="matrix(1.25,0,0,-1.25,0,727.6875)">
	<g id="g12" transform="scale(0.1,0.1)">
		<path id="path14" fill="#FFFFFF" d="M501.648,1424.492c74.234,39.977,114.473,104.648,114.473,185.961
			c0,152.297-120.316,239.68-330.066,239.68H0v-172.602l184.57-0.063h108.637c85.363,0,132.391-30.125,132.391-84.875
			c0-27.563-11.977-52.734-33.746-71c-26.516-22.313-66.824-34.047-119.949-34.047H184.57L0,1487.688v-142.82l184.57-0.273h72.965
			c117.375,0,184.715-35.281,184.715-96.766c0-80.938-81.055-97.906-149.043-97.906H184.57L0,1150.422V977.211h286.055
			c210.914,0,352.641,102.531,352.641,255.172C638.695,1295.547,613.617,1376.727,501.648,1424.492"/>
		<path id="path16" fill="#FFFFFF" d="M3936.781,1431.672c74.227,39.93,114.469,104.641,114.469,185.922
			c0,152.305-120.32,239.688-330.063,239.688h-286.055V1684.68l184.57-0.078h108.625c85.375,0,132.391-30.133,132.391-84.852
			c0-27.508-11.969-52.742-33.727-70.969c-26.523-22.32-66.844-34.07-119.961-34.07h-87.328l-184.57,0.156v-142.828l184.57-0.297
			h72.969c117.367,0,184.719-35.281,184.719-96.75c0-80.922-81.063-97.961-149.063-97.961h-108.625l-184.57,0.57V984.359h286.055
			c210.898,0,352.633,102.531,352.633,255.172C4073.82,1302.664,4048.742,1383.922,3936.781,1431.672"/>
		<path id="path18" fill="#FFFFFF" d="M1460.031,1860.844h-56.93L993.469,980.828h195.84l239.871,544.453l241.141-544.453h199.34
			L1460.031,1860.844"/>
		<path id="path20" fill="#FFFFFF" d="M7752.667,1860.844h-56.906l-409.625-880.016h195.859l239.875,544.453l241.125-544.453
			h199.328L7752.667,1860.844"/>
		<path id="path22" fill="#FFFFFF" d="M2783.492,1275.852c93.391,51.805,142.547,141.969,142.547,262.055
			c0,197.742-131.82,315.781-352.633,315.781h-286.047v-173.148l184.563,0.469h90.789c112.289,0,166.891-46.805,166.891-143.101
			c0-97.313-56.164-146.68-166.891-146.68h-90.789l-184.563,0.211V980.828h184.563v242.5h72.969c22.68,0,44.813,0.875,66,2.641
			l176.516-245.141h219.227L2783.492,1275.852"/>
		<path id="path24" fill="#FFFFFF" d="M6090.308,1272.227c93.406,51.875,142.578,141.977,142.578,262.102
			c0,197.734-131.813,315.805-352.641,315.805h-286.078v-173.172l184.594,0.508h90.766c112.297,0,166.906-46.813,166.906-143.141
			c0-97.281-56.156-146.672-166.906-146.672h-90.766l-184.594,0.172V977.211h184.594v242.508h72.953c22.688,0,44.828,0.938,66,2.641
			l176.516-245.148h219.219L6090.308,1272.227"/>
		<path id="path26" fill="#FFFFFF" d="M4709.933,1319.609h359.031v167.938h-543.598v-167.805L4709.933,1319.609"/>
		<path id="path28" fill="#FFFFFF" d="M4709.933,1157.031l-184.566,0.195V984.359h580.426v172.672H4709.933"/>
		<path id="path30" fill="#FFFFFF" d="M4525.367,1857.281v-172.344l184.566-0.336h395.859v172.68H4525.367"/>
		<path id="path32" fill="#FFFFFF" d="M6727.214,980.828h184.578v872.859h-184.578V980.828z"/>
		<path id="path34" fill="#FFFFFF" d="M8671.354,1472.891l498.016-498.023h65.516v878.82h-184.578v-506.195l-490.656,510.961
			h-72.844V980.828h184.547V1472.891"/>
		<path id="path36" fill="#FFFFFF" d="M214.066,146.781h-78.875l39.438,89.148L214.066,146.781z M186.746,368.469h-22.352
			L2.035,19.649h77.309l28.777,66.023h133.051l29.242-66.023h78.703L188.711,364.281L186.746,368.469"/>
		<path id="path38" fill="#FFFFFF" d="M771.734,105.289c-0.402-0.188-39.297-21.734-92.703-21.734
			c-65.238,0-112.613,45.586-112.613,108.406c0,66.688,46.434,109.734,118.273,109.734c40.68,0,83.168-20.719,83.605-20.914
			l6.957-3.414l25.473,62.844l-5.219,3.148c-1.891,1.125-46.922,27.945-120.711,27.945c-102.535,0-185.953-80.055-185.953-178.406
			c0-105.367,79.75-178.93,193.965-178.93c68.793,0,112.473,27.844,114.293,28.977l4.785,3.133l-22.742,63.352L771.734,105.289"/>
		<path id="path40" fill="#FFFFFF" d="M1163.961,146.781h-78.883l39.453,89.148L1163.961,146.781z M1136.641,368.469h-22.352
			L951.926,19.649h77.313l28.773,66.023h133.047l29.25-66.023H1299l-160.398,344.633L1136.641,368.469"/>
		<path id="path42" fill="#FFFFFF" d="M1597.762,87.813h-59.32v209.664h59.32c61.969,0,106.957-44.398,106.957-105.516
			C1704.719,132.578,1658.711,87.813,1597.762,87.813z M1597.281,365.617h-132.172V19.649h132.172
			c105.219,0,184.547,74.461,184.547,173.25C1781.828,292.969,1704.211,365.617,1597.281,365.617"/>
		<path id="path44" fill="#FFFFFF" d="M1974.699,19.649h229.922v68.164h-157.063v64.828h142.449v66.305h-142.449v78.531h157.063
			v68.141h-229.922V19.649"/>
		<path id="path46" fill="#FFFFFF" d="M2710.562,367.055l-130.266-234.023L2446.82,367.055h-37.117l-9.844-347.406h71.633
			l0.828,166.414l91.977-169.258h28.883l91.078,172.016l1.219-169.172h72.102l-9.836,347.406H2710.562"/>
		<path id="path48" fill="#FFFFFF" d="M3147.922,284.406c0-59.016-23.594-87.648-72.07-87.648
			c-47.133,0-72.055,30.148-72.055,87.141v81.719h-73.328v-81.719c0-87.531,37.484-140.07,108.484-152.383V19.649h72.375v111.93
			c71.961,12.852,109.914,65.391,109.914,152.32v81.719h-73.32V284.406"/>
		<path id="path50" fill="#FFFFFF" d="M3780.937,161.11l72.945-68.43c-17.32-9.789-34.406-14.789-50.922-14.789
			c-33.773,0-53.188,14.75-53.188,40.469C3749.773,136.977,3758.89,149.594,3780.937,161.11z M3777.609,277.281
			c0,16.891,10.047,33.859,32.43,33.859c22.063,0,31.961-16.969,31.961-33.859c0-19.305-14.5-30.57-36.719-40.961
			C3787.969,252.531,3777.609,263.844,3777.609,277.281z M3952.297,199.133c-0.156-0.281-17.273-31.281-44.547-61.648
			l-57.594,53.367c30.242,14.805,60.922,39.672,60.922,93.555c0,53.117-40.586,88.781-101.039,88.781
			c-62.992,0-105.289-38.555-105.289-95.906c0-23.938,10.563-47.633,31.422-70.477c-32.289-16.305-62.555-41.039-62.555-92.727
			c0-59.477,51.234-101.039,124.633-101.039c33.297,0,67.219,11.656,101.008,34.602L3945.922,0l5.148,5.352
			c37.219,38.617,38.102,39.977,38.531,40.594l3.227,4.883l-41.148,42.094c33.531,35.18,53.297,68.398,54.172,69.891l3.352,5.703
			l-53.016,37.75L3952.297,199.133"/>
		<path id="path52" fill="#FFFFFF" d="M4593.32,87.813h-43.289v77.578h29.141c46.68,0,73.465-14.031,73.465-38.523
			C4652.636,94.578,4620.39,87.805,4593.32,87.813z M4550.031,221.75v75.727h43.289c34,0,52.707-12.031,52.707-33.836
			c0-10.992-4.781-21.047-13.457-28.313c-10.539-8.883-26.602-13.578-47.711-13.578H4550.031z M4675.605,196.922
			c29.609,15.773,45.656,41.461,45.656,73.758c0,35.492-17,94.937-130.785,94.937h-113.305V19.649h113.305
			c83.598,0,139.738,40.602,139.738,101.047C4730.214,145.82,4720.214,178.008,4675.605,196.922"/>
		<path id="path54" fill="#FFFFFF" d="M5125.824,146.781h-78.875l39.453,89.148L5125.824,146.781L5125.824,146.781z
			 M5098.511,368.469h-22.344l-162.375-348.82h77.313l28.797,66.023h133.016l29.281-66.023h78.656L5100.48,364.281L5098.511,368.469
			"/>
		<path id="path56" fill="#FFFFFF" d="M5528.183,297.477h36.219c44.656,0,66.391-18.633,66.391-57.008
			c0-38.695-22.359-58.328-66.391-58.328h-36.219V297.477z M5708.371,240.469c0,78.391-52.219,125.148-139.719,125.148h-113.297
			V19.649h72.828v96.203h29.141c9.078,0,17.891,0.367,26.266,1.078l70.047-97.281h86.547L5651.73,136.57
			C5688.839,157.133,5708.371,192.828,5708.371,240.469"/>
		<path id="path58" fill="#FFFFFF" d="M6062.183,87.813h-43.281v77.578h29.141c46.672,0,73.453-14.031,73.453-38.523
			c0-32.289-32.25-39.062-59.313-39.062V87.813z M6018.902,221.75v75.727h43.281c34,0,52.719-12.031,52.719-33.836
			c0-10.992-4.766-21.047-13.438-28.313c-10.578-8.883-26.609-13.578-47.734-13.578H6018.902z M6144.511,196.922
			c29.594,15.773,45.625,41.461,45.625,73.758c0,35.492-17,94.937-130.766,94.937h-113.328V19.649h113.328
			c83.594,0,139.703,40.602,139.703,101.047C6199.074,145.82,6189.105,178.008,6144.511,196.922"/>
		<path id="path60" fill="#FFFFFF" d="M6419.324,19.649h229.922v68.164h-157.063v64.828h142.438v66.305h-142.438v78.531h157.063
			v68.141h-229.922V19.649"/>
		<path id="path62" fill="#FFFFFF" d="M6931.464,297.477h36.203c44.672,0,66.391-18.633,66.391-57.008
			c0-38.695-22.344-58.328-66.391-58.328h-36.203V297.477z M7111.636,240.469c0,78.391-52.188,125.148-139.703,125.148h-113.328
			V19.649h72.859v96.203h29.141c9.063,0,17.891,0.367,26.266,1.078l70.047-97.281h86.531l-88.453,116.922
			C7092.121,157.133,7111.636,192.828,7111.636,240.469"/>
		<path id="path64" fill="#FFFFFF" d="M7722.261,224.617c-50.125,18.242-59.922,30.172-59.922,44.688
			c0,22.047,16.375,35.234,43.766,35.234c24.078,0,52.219-11,70.547-21.227l7.359-4.133l23.813,65.492l-5.219,3.016
			c-19.734,11.383-55.094,23.617-95.109,23.617c-77.781,0-118.484-52.055-118.484-103.453c0-46.492,28.203-77.508,91.469-100.578
			c62.781-23.211,67.484-35.18,67.484-50.812c0-20.258-19.594-33.336-49.891-33.336c-27.75,0-59.141,10.336-86.047,28.437
			l-7.516,5.07l-25.656-66.891l5.109-3.117c34.031-20.75,74.953-32.656,112.25-32.656c77.75,0,126.047,39.297,126.047,102.492
			C7822.261,166.328,7794.261,196.672,7722.261,224.617"/>
		<path id="path66" fill="#FFFFFF" d="M8227.823,216.578h-147.421v149.039h-72.875V19.649h72.875v130.656h147.421V19.649h72.828
			v345.508h-72.828V216.578"/>
		<path id="path68" fill="#FFFFFF" d="M8654.979,80.266c-59.984,0-106.984,49.055-106.984,111.695
			c0,63.93,46.016,112.102,106.984,112.102c61.969,0,106.969-47.164,106.969-112.102
			C8761.948,128.274,8715.933,80.266,8654.979,80.266z M8654.511,371.305c-103.25,0-184.078-78.383-184.078-178.406
			c0-101.727,79.141-178.461,184.078-178.461c105.203,0,184.531,76.734,184.531,178.461
			C8839.042,296.266,8761.433,371.305,8654.511,371.305"/>
		<path id="path70" fill="#FFFFFF" d="M9124.964,182.141h-31.516v115.336h31.516c44.641,0,66.375-18.633,66.375-57.008
			C9191.339,201.774,9168.995,182.141,9124.964,182.141z M9129.214,365.617h-108.609V19.649h72.844v96.203h24.438
			c96,0,151.031,45.469,151.031,124.617C9268.917,318.859,9216.714,365.617,9129.214,365.617"/>
		<path id="path72" fill="#FFFFFF" d="M5283.839,4480.691c-3.281-1.832-6.734-3.52-10.156-5.172
			c-17.594-8.559-35.188-17.109-52.797-25.66c-11.25-5.398-22.563-10.73-33.781-16.16c-6.031-2.879-12-5.84-17.969-8.691
			c-15.813-7.598-31.594-15.02-47.281-22.707c-14.75-7.172-29.375-14.52-44.078-21.813c-2.531-1.25-4.906-2.289-8.094-1.527
			c-6.625,1.57-11.359,5.18-14.5,11.059c-2.531,4.699-4.891,9.512-7.703,13.992c-2,3.277-4.156,3.719-7.484,2.316
			c-22.781-9.578-68.281-28.809-68.281-28.809s-26.781,3.09-26.781,10.832c10.438,5.117,33.891,16.418,44.109,21.391
			c23.5,11.469,47.031,22.906,70.5,34.336c17.234,8.363,34.5,16.641,51.797,24.98c14.75,7.172,29.484,14.262,44.234,21.434
			c21.281,10.336,42.422,20.738,63.672,31.066c11.703,5.742,23.5,11.23,35.203,17.063c2.516,1.27,4.375,0.938,6.375-0.441
			c1.109-0.781,2.094-1.77,2.953-2.781c8.109-9.359,13.578-20.117,17.875-31.43c2.422-6.859,4.625-13.66,3.656-20.977
			C5285.214,4482.16,5284.574,4481.109,5283.839,4480.691L5283.839,4480.691z M5272.292,4292.199c-1.938-8-6.016-14.52-13.141-19.25
			c-4.109-2.75-8.047-4.938-13.125-4.801c-3.641,0.113-7.313-0.988-10.922-0.777c-8,0.41-15.969,1.289-24.016,1.918
			c-15.188,1.172-30.406,2.012-45.672,3.563c-23.688,2.391-47.344,5.02-70.906,8c-19.438,2.48-38.859,5.309-58.078,8.609
			c-23.547,4.02-46.594,10.051-69.188,18.031c-25.219,8.918-49.781,19.227-71.781,34.816c-8.453,6.012-16.609,12.434-24.422,19.211
			c-9.953,8.82-8.625,23.871,4.703,32.23c4.031,2.27,11.063,2.422,17.969,0.43c9.25-2.621,18.156-6.059,27.469-8.789
			c17.719-5.148,35.359-10.609,53.281-14.941c25.672-6.207,51.328-11.98,77.141-16.938c20.031-3.871,40.344-6.434,60.531-9.141
			c21.141-2.801,42.484-5.313,63.641-7.422c23.281-2.289,46.625-3.828,69.875-5.957c10.438-0.98,18-7.102,23.125-15.652
			C5273.074,4308.27,5274.386,4300.262,5272.292,4292.199z M4750.027,3756.609c-47.906,50.469-23.984,137.082-23.984,137.082
			H4532.57c0,0,23.992-76.34-23.891-126.781c-2.117,1.551-84.563,43.629-138.086,86.18
			c24.875,74.988,88.859,152.891,247.773,155.059c3.836,0.063,7.414-0.078,10.961-0.188c3.609,0.109,7.148,0.25,10.98,0.188
			c158.906-2.168,222.906-80.07,247.828-155.059C4821.542,3799.219,4752.121,3758.199,4750.027,3756.609z M4096.093,4396.699
			c-7.32,48.5,49.016,170.293,49.016,170.293s55.961-90.063,78.367-105.691c104.586-73.141,186.32-82.223,186.32-82.223
			l-58.523-111.738C4351.273,4267.34,4113.843,4279.41,4096.093,4396.699L4096.093,4396.699z M4762.48,4327.031
			c29.266,0.93,57.688,7.117,85.516,16.961c10.438,3.668,16.609,6.277,27.047,11.559c-0.281-4.832,7.594-6.18,8.078-10.051
			c0.641-5.43-2.406-5.969-7.297-7.961c-18.219-7.297-36.859-12.84-56.172-15.859c-17.688-2.758-35.391-4.168-53.078-2.348
			c-2.203,0.23-4.453,1.367-6.328,2.617c-0.891,0.641-1.406,2.57-1.188,3.793C4759.121,4326.34,4761.246,4327,4762.48,4327.031
			L4762.48,4327.031z M5418.105,4868.699c0.094-0.18,0.188-0.359,0.281-0.52c30.156,30.75,64.719,69.012,101.578,115.16
			c121.594,152.23,112.328,364.75,45.609,469.98c-87.25,137.77-219.641,153.129-276.203,242.398
			c-41.094,64.801,7.453,124.992,7.453,124.992s-45.141,8.418-78.094-29.949c-28.563-33.141-54.125-114.781-2.859-195.66
			c49.484-78.07,65.625-69.082,102.703-127.551c25.922-40.91,54.813-95.25-1.547-160.75c-61.156-71.082-121.984-33.199-166.938-11
			c-175.109,185.199-374.953,280.941-513.855,293.91v1.48c-1.234-0.07-2.586-0.223-3.836-0.34c-1.305,0.117-2.578,0.27-3.828,0.34
			v-1.48c-140.648-13.109-343.789-110.941-520.469-300.711c-44.078-21.91-101.179-50.43-157.945,16.422
			c-55.906,65.848-26.648,120.059-0.508,160.77c37.453,58.238,53.563,49.109,103.555,126.859
			c51.804,80.57,26.75,162.328-1.625,195.68c-32.719,38.59-77.906,30.469-77.906,30.469s48.18-60.508,6.68-125.039
			c-57.195-88.918-189.625-103.371-277.742-240.59c-67.406-104.789-78.078-317.25,42.508-470.27
			c36.633-46.41,70.914-84.871,100.844-115.832c0.289,0.551,0.633,1.082,0.906,1.652c-49.656-126.711-85.438-270.641-100.141-432.68
			c-30.406-332.98-0.508-922.32,135.391-1103.84c-22.367,141.809-30.688,407.43,30.891,555.879
			c-10.297-291.059,4.742-750.5,152.531-881.82c5.852-5.949-11.906,103.789-13.961,288.18
			c-1.102,96.801,21.703,252.352,43.75,253.941c17.023-611.801,138.703-771.625,176.523-777.344
			c-37.82,301.523-30.555,415.922-1.961,529.113c10.68,42.18,32.75,6.109,38.828-135.531
			c24.781-571.566,188.922-587.535,188.922-587.535c-38.688,201.906-12.047,611.594,17.57,605.344
			c27.211-5.738,35.859-111.07,35.859-199.047c0-361.375,78.672-459.109,78.672-459.109s74.832,24.219,83.52,462.156
			c1.359,66.68,13.5,216.391,36.344,196c22.969-20.387,56.219-403.438,17.594-605.344c0,0,164.078,15.969,188.906,587.535
			c6.094,141.641,28.141,177.711,38.781,135.531c28.563-113.191,35.891-227.59-1.922-529.113
			c37.813,5.719,159.469,165.543,176.438,777.344c22.094-1.59,44.953-157.141,43.844-253.941
			c-2.078-184.391-19.813-294.129-13.969-288.18c147.75,131.32,162.844,611.332,152.547,902.379
			c88.266-257.801,11.547-571.898,15.859-567.379c135.906,181.539,180.766,761.801,150.422,1094.781
			C5503.386,4598.32,5467.683,4742.109,5418.105,4868.699"/>
	</g>
</g>
</svg>
