<?xml version="1.0" encoding="UTF-8" standalone="no"?>
<svg
   xmlns:dc="http://purl.org/dc/elements/1.1/"
   xmlns:cc="http://creativecommons.org/ns#"
   xmlns:rdf="http://www.w3.org/1999/02/22-rdf-syntax-ns#"
   xmlns:svg="http://www.w3.org/2000/svg"
   xmlns="http://www.w3.org/2000/svg"
   viewBox="0 0 1158.6125 727.6875"
   height="727.6875"
   width="1158.6125"
   xml:space="preserve"
   version="1.1"
   id="svg2"><metadata
     id="metadata8"><rdf:RDF><cc:Work
         rdf:about=""><dc:format>image/svg+xml</dc:format><dc:type
           rdf:resource="http://purl.org/dc/dcmitype/StillImage" /></cc:Work></rdf:RDF></metadata><defs
     id="defs6" /><g
     transform="matrix(1.25,0,0,-1.25,0,727.6875)"
     id="g10"><g
       transform="scale(0.1,0.1)"
       id="g12"><path
         id="path14"
         style="fill:#100f0d;fill-opacity:1;fill-rule:nonzero;stroke:none"
         d="m 501.648,1424.49 c 74.235,39.98 114.473,104.65 114.473,185.96 0,152.3 -120.316,239.68 -330.066,239.68 l -286.055,0 0,-172.6 184.57,-0.06 108.637,0 c 85.363,0 132.391,-30.13 132.391,-84.88 0,-27.56 -11.977,-52.73 -33.746,-71 -26.516,-22.31 -66.825,-34.04 -119.95,-34.04 l -87.332,0 -184.57,0.14 0,-142.82 184.57,-0.28 72.965,0 c 117.375,0 184.715,-35.28 184.715,-96.76 0,-80.94 -81.055,-97.91 -149.043,-97.91 l -108.637,0 -184.57,0.5 0,-173.209 286.055,0 c 210.914,0 352.64,102.529 352.64,255.169 0,63.17 -25.078,144.35 -137.047,192.11" /><path
         id="path16"
         style="fill:#100f0d;fill-opacity:1;fill-rule:nonzero;stroke:none"
         d="m 3936.78,1431.67 c 74.23,39.93 114.47,104.64 114.47,185.92 0,152.31 -120.32,239.69 -330.06,239.69 l -286.06,0 0,-172.6 184.57,-0.08 108.63,0 c 85.37,0 132.39,-30.13 132.39,-84.85 0,-27.51 -11.97,-52.74 -33.73,-70.97 -26.52,-22.32 -66.84,-34.07 -119.96,-34.07 l -87.33,0 -184.57,0.16 0,-142.83 184.57,-0.3 72.97,0 c 117.37,0 184.72,-35.28 184.72,-96.75 0,-80.92 -81.06,-97.96 -149.06,-97.96 l -108.63,0 -184.57,0.57 0,-173.241 286.06,0 c 210.9,0 352.63,102.531 352.63,255.171 0,63.13 -25.08,144.39 -137.04,192.14" /><path
         id="path18"
         style="fill:#100f0d;fill-opacity:1;fill-rule:nonzero;stroke:none"
         d="m 1460.03,1860.84 -56.93,0 -409.631,-880.012 195.841,0 239.87,544.452 241.14,-544.452 199.34,0 -409.63,880.012" /><path
         id="path20"
         style="fill:#100f0d;fill-opacity:1;fill-rule:nonzero;stroke:none"
         d="m 7752.67,1860.84 -56.91,0 -409.63,-880.012 195.86,0 239.88,544.452 241.13,-544.452 199.32,0 -409.65,880.012" /><path
         id="path22"
         style="fill:#100f0d;fill-opacity:1;fill-rule:nonzero;stroke:none"
         d="m 2783.49,1275.85 c 93.39,51.81 142.55,141.97 142.55,262.06 0,197.74 -131.82,315.78 -352.63,315.78 l -286.05,0 0,-173.15 184.56,0.47 90.79,0 c 112.29,0 166.89,-46.81 166.89,-143.1 0,-97.32 -56.16,-146.68 -166.89,-146.68 l -90.79,0 -184.56,0.21 0,-410.612 184.56,0 0,242.502 72.97,0 c 22.68,0 44.81,0.87 66,2.64 l 176.52,-245.142 219.22,0 -223.14,295.022" /><path
         id="path24"
         style="fill:#100f0d;fill-opacity:1;fill-rule:nonzero;stroke:none"
         d="m 6090.31,1272.23 c 93.4,51.87 142.58,141.97 142.58,262.1 0,197.73 -131.82,315.8 -352.64,315.8 l -286.08,0 0,-173.17 184.59,0.51 90.77,0 c 112.3,0 166.91,-46.81 166.91,-143.14 0,-97.28 -56.17,-146.67 -166.91,-146.67 l -90.77,0 -184.59,0.17 0,-410.619 184.59,0 0,242.509 72.95,0 c 22.7,0 44.83,0.94 66,2.64 l 176.52,-245.149 219.22,0 -223.14,295.019" /><path
         id="path26"
         style="fill:#100f0d;fill-opacity:1;fill-rule:nonzero;stroke:none"
         d="m 4709.94,1319.61 359.02,0 0,167.94 -543.59,0 0,-167.81 184.57,-0.13" /><path
         id="path28"
         style="fill:#100f0d;fill-opacity:1;fill-rule:nonzero;stroke:none"
         d="m 4709.94,1157.03 -184.57,0.2 0,-172.871 580.43,0 0,172.671 -395.86,0" /><path
         id="path30"
         style="fill:#100f0d;fill-opacity:1;fill-rule:nonzero;stroke:none"
         d="m 4525.37,1857.28 0,-172.34 184.57,-0.34 395.86,0 0,172.68 -580.43,0" /><path
         id="path32"
         style="fill:#100f0d;fill-opacity:1;fill-rule:nonzero;stroke:none"
         d="m 6727.22,980.828 184.57,0 0,872.863 -184.57,0 0,-872.863 z" /><path
         id="path34"
         style="fill:#100f0d;fill-opacity:1;fill-rule:nonzero;stroke:none"
         d="m 8671.36,1472.89 498.01,-498.019 65.51,0 0,878.819 -184.57,0 0,-506.2 -490.65,510.96 -72.85,0 0,-877.622 184.55,0 0,492.062" /><path
         id="path36"
         style="fill:#100f0d;fill-opacity:1;fill-rule:nonzero;stroke:none"
         d="m 214.066,146.781 -78.875,0 39.438,89.149 39.437,-89.149 z m -27.32,221.688 -22.351,0 L 2.03516,19.6484 l 77.30864,0 28.7772,66.0235 133.051,0 29.242,-66.0235 78.703,0 -160.406,344.6326 -1.965,4.188" /><path
         id="path38"
         style="fill:#100f0d;fill-opacity:1;fill-rule:nonzero;stroke:none"
         d="m 771.734,105.289 c -0.402,-0.187 -39.296,-21.7382 -92.703,-21.7382 -65.238,0 -112.613,45.5902 -112.613,108.4102 0,66.687 46.434,109.738 118.273,109.738 40.68,0 83.168,-20.719 83.606,-20.918 l 6.957,-3.41 25.473,62.84 -5.219,3.148 c -1.891,1.129 -46.922,27.942 -120.711,27.942 -102.535,0 -185.953,-80.051 -185.953,-178.403 0,-105.3667 79.75,-178.9292 193.965,-178.9292 68.793,0 112.472,27.8398 114.293,28.9804 l 4.785,3.1289 -22.742,63.3519 -7.411,-4.141" /><path
         id="path40"
         style="fill:#100f0d;fill-opacity:1;fill-rule:nonzero;stroke:none"
         d="m 1163.96,146.781 -78.88,0 39.45,89.149 39.43,-89.149 z m -27.32,221.688 -22.35,0 -162.364,-348.8206 77.314,0 28.77,66.0235 133.05,0 29.25,-66.0235 78.69,0 -160.4,344.6326 -1.96,4.188" /><path
         id="path42"
         style="fill:#100f0d;fill-opacity:1;fill-rule:nonzero;stroke:none"
         d="m 1597.76,87.8086 -59.32,0 0,209.6714 59.32,0 c 61.97,0 106.96,-44.402 106.96,-105.519 0,-59.383 -46.01,-104.1524 -106.96,-104.1524 z m -0.48,277.8124 -132.17,0 0,-345.9726 132.17,0 c 105.22,0 184.55,74.461 184.55,173.2496 0,100.071 -77.62,172.723 -184.55,172.723" /><path
         id="path44"
         style="fill:#100f0d;fill-opacity:1;fill-rule:nonzero;stroke:none"
         d="m 1974.7,19.6484 229.92,0 0,68.1602 -157.06,0 0,64.8324 142.45,0 0,66.308 -142.45,0 0,78.531 157.06,0 0,68.141 -229.92,0 0,-345.9726" /><path
         id="path46"
         style="fill:#100f0d;fill-opacity:1;fill-rule:nonzero;stroke:none"
         d="m 2710.56,367.051 -130.26,-234.02 -133.48,234.02 -37.12,0 -9.84,-347.4026 71.63,0 0.83,166.4106 91.98,-169.2582 28.88,0 91.08,172.0192 1.22,-169.1716 72.1,0 -9.84,347.4026 -37.18,0" /><path
         id="path48"
         style="fill:#100f0d;fill-opacity:1;fill-rule:nonzero;stroke:none"
         d="m 3147.92,284.41 c 0,-59.019 -23.59,-87.652 -72.07,-87.652 -47.13,0 -72.05,30.152 -72.05,87.14 l 0,81.723 -73.33,0 0,-81.723 c 0,-87.527 37.48,-140.07 108.48,-152.386 l 0,-111.8636 72.38,0 0,111.9296 c 71.96,12.852 109.91,65.391 109.91,152.32 l 0,81.723 -73.32,0 0,-81.211" /><path
         id="path50"
         style="fill:#100f0d;fill-opacity:1;fill-rule:nonzero;stroke:none"
         d="m 3780.94,161.109 72.94,-68.4293 c -17.32,-9.7891 -34.4,-14.7891 -50.92,-14.7891 -33.77,0 -53.19,14.75 -53.19,40.4684 0,18.621 9.12,31.231 31.17,42.75 z m -3.33,116.172 c 0,16.891 10.05,33.86 32.43,33.86 22.06,0 31.96,-16.969 31.96,-33.86 0,-19.301 -14.5,-30.57 -36.72,-40.961 -17.31,16.211 -27.67,27.52 -27.67,40.961 z m 174.69,-78.152 c -0.16,-0.277 -17.28,-31.277 -44.55,-61.641 l -57.59,53.364 c 30.24,14.808 60.92,39.668 60.92,93.558 0,53.11 -40.59,88.781 -101.04,88.781 -62.99,0 -105.29,-38.562 -105.29,-95.91 0,-23.941 10.56,-47.633 31.42,-70.48 -32.29,-16.301 -62.55,-41.039 -62.55,-92.723 0,-59.4764 51.23,-101.0389 124.63,-101.0389 33.3,0 67.22,11.6601 101.01,34.6015 L 3945.92,0 l 5.15,5.35156 c 37.22,38.61724 38.1,39.97654 38.53,40.59764 l 3.23,4.8828 -41.15,42.0899 c 33.53,35.1801 53.3,68.3981 54.17,69.8871 l 3.35,5.703 -53.01,37.75 -3.89,-7.133" /><path
         id="path52"
         style="fill:#100f0d;fill-opacity:1;fill-rule:nonzero;stroke:none"
         d="m 4593.32,87.8086 -43.29,0 0,77.5824 29.14,0 c 46.68,0 73.46,-14.032 73.46,-38.52 0,-32.289 -32.24,-39.0624 -59.31,-39.0624 z m -43.29,133.9414 0,75.73 43.29,0 c 34,0 52.71,-12.031 52.71,-33.839 0,-10.993 -4.78,-21.051 -13.46,-28.313 -10.54,-8.879 -26.6,-13.578 -47.71,-13.578 l -34.83,0 z m 125.57,-24.828 c 29.61,15.777 45.66,41.457 45.66,73.758 0,35.492 -16.99,94.941 -130.78,94.941 l -113.31,0 0,-345.9726 113.31,0 c 83.6,0 139.73,40.6016 139.73,101.0506 0,25.121 -10,57.309 -54.61,76.223" /><path
         id="path54"
         style="fill:#100f0d;fill-opacity:1;fill-rule:nonzero;stroke:none"
         d="m 5125.83,146.781 -78.88,0 39.45,89.149 39.43,-89.149 z m -27.32,221.688 -22.34,0 -162.37,-348.8206 77.31,0 28.79,66.0235 133.02,0 29.28,-66.0235 78.65,0 -160.37,344.6326 -1.97,4.188" /><path
         id="path56"
         style="fill:#100f0d;fill-opacity:1;fill-rule:nonzero;stroke:none"
         d="m 5528.18,297.48 36.23,0 c 44.65,0 66.39,-18.64 66.39,-57.011 0,-38.699 -22.37,-58.328 -66.39,-58.328 l -36.23,0 0,115.339 z m 180.19,-57.011 c 0,78.39 -52.22,125.152 -139.72,125.152 l -113.3,0 0,-345.9726 72.83,0 0,96.2036 29.14,0 c 9.08,0 17.89,0.367 26.27,1.078 l 70.04,-97.2816 86.56,0 -88.46,116.9216 c 37.11,20.559 56.64,56.258 56.64,103.899" /><path
         id="path58"
         style="fill:#100f0d;fill-opacity:1;fill-rule:nonzero;stroke:none"
         d="m 6062.18,87.8086 -43.28,0 0,77.5824 29.14,0 c 46.68,0 73.46,-14.032 73.46,-38.52 0,-32.289 -32.25,-39.0624 -59.32,-39.0624 z m -43.28,133.9414 0,75.73 43.28,0 c 34.01,0 52.72,-12.031 52.72,-33.839 0,-10.993 -4.77,-21.051 -13.44,-28.313 -10.57,-8.879 -26.6,-13.578 -47.73,-13.578 l -34.83,0 z m 125.61,-24.828 c 29.59,15.777 45.62,41.457 45.62,73.758 0,35.492 -16.99,94.941 -130.76,94.941 l -113.32,0 0,-345.9726 113.32,0 c 83.59,0 139.71,40.6016 139.71,101.0506 0,25.121 -9.98,57.309 -54.57,76.223" /><path
         id="path60"
         style="fill:#100f0d;fill-opacity:1;fill-rule:nonzero;stroke:none"
         d="m 6419.33,19.6484 229.92,0 0,68.1602 -157.07,0 0,64.8324 142.44,0 0,66.308 -142.44,0 0,78.531 157.07,0 0,68.141 -229.92,0 0,-345.9726" /><path
         id="path62"
         style="fill:#100f0d;fill-opacity:1;fill-rule:nonzero;stroke:none"
         d="m 6931.46,297.48 36.21,0 c 44.67,0 66.39,-18.64 66.39,-57.011 0,-38.699 -22.35,-58.328 -66.39,-58.328 l -36.21,0 0,115.339 z m 180.18,-57.011 c 0,78.39 -52.19,125.152 -139.71,125.152 l -113.32,0 0,-345.9726 72.85,0 0,96.2036 29.14,0 c 9.06,0 17.89,0.367 26.27,1.078 l 70.04,-97.2816 86.54,0 L 7055,136.57 c 37.12,20.559 56.64,56.258 56.64,103.899" /><path
         id="path64"
         style="fill:#100f0d;fill-opacity:1;fill-rule:nonzero;stroke:none"
         d="m 7722.26,224.621 c -50.12,18.238 -59.92,30.168 -59.92,44.68 0,22.051 16.37,35.238 43.77,35.238 24.08,0 52.21,-11 70.55,-21.23 l 7.36,-4.129 23.81,65.488 -5.22,3.023 c -19.74,11.379 -55.1,23.61 -95.11,23.61 -77.78,0 -118.48,-52.051 -118.48,-103.449 0,-46.493 28.2,-77.512 91.46,-100.582 62.78,-23.211 67.48,-35.18 67.48,-50.809 0,-20.2618 -19.59,-33.3399 -49.88,-33.3399 -27.75,0 -59.14,10.3398 -86.05,28.4379 l -7.52,5.07 -25.65,-66.8907 5.1,-3.1172 c 34.04,-20.75 74.96,-32.6523 112.25,-32.6523 77.75,0 126.05,39.3007 126.05,102.4922 0,49.867 -27.99,80.211 -100,108.16" /><path
         id="path66"
         style="fill:#100f0d;fill-opacity:1;fill-rule:nonzero;stroke:none"
         d="m 8227.83,216.578 -147.42,0 0,149.043 -72.88,0 0,-345.9726 72.88,0 0,130.6526 147.42,0 0,-130.6526 72.83,0 0,345.5116 -72.83,0 0,-148.582" /><path
         id="path68"
         style="fill:#100f0d;fill-opacity:1;fill-rule:nonzero;stroke:none"
         d="M 8654.98,80.2695 C 8595,80.2695 8548,129.32 8548,191.961 c 0,63.93 46.02,112.098 106.98,112.098 61.97,0 106.97,-47.161 106.97,-112.098 0,-63.691 -46.02,-111.6915 -106.97,-111.6915 z m -0.47,291.0315 c -103.25,0 -184.07,-78.379 -184.07,-178.403 0,-101.7261 79.13,-178.4566 184.07,-178.4566 105.21,0 184.53,76.7305 184.53,178.4566 0,103.364 -77.6,178.403 -184.53,178.403" /><path
         id="path70"
         style="fill:#100f0d;fill-opacity:1;fill-rule:nonzero;stroke:none"
         d="m 9124.96,182.141 -31.51,0 0,115.339 31.51,0 c 44.64,0 66.38,-18.64 66.38,-57.011 0,-38.699 -22.34,-58.328 -66.38,-58.328 z m 4.25,183.48 -108.61,0 0,-345.9726 72.85,0 0,96.2036 24.44,0 c 95.99,0 151.03,45.468 151.03,124.617 0,78.39 -52.21,125.152 -139.71,125.152" /><path
         id="path72"
         style="fill:#100f0d;fill-opacity:1;fill-rule:nonzero;stroke:none"
         d="m 5283.84,4480.69 c -3.28,-1.83 -6.74,-3.52 -10.15,-5.17 -17.6,-8.56 -35.2,-17.11 -52.8,-25.66 -11.25,-5.4 -22.56,-10.73 -33.79,-16.16 -6.03,-2.88 -11.99,-5.84 -17.96,-8.69 -15.81,-7.6 -31.59,-15.02 -47.29,-22.71 -14.75,-7.17 -29.37,-14.52 -44.08,-21.81 -2.52,-1.25 -4.9,-2.29 -8.09,-1.53 -6.62,1.57 -11.36,5.18 -14.49,11.06 -2.54,4.7 -4.9,9.51 -7.71,13.99 -2,3.28 -4.16,3.72 -7.48,2.32 -22.78,-9.58 -68.29,-28.81 -68.29,-28.81 0,0 -26.77,3.09 -26.77,10.83 10.43,5.12 33.88,16.42 44.1,21.39 23.51,11.47 47.03,22.91 70.51,34.34 17.22,8.36 34.49,16.64 51.79,24.98 14.75,7.17 29.49,14.26 44.24,21.43 21.27,10.34 42.42,20.74 63.67,31.07 11.7,5.74 23.5,11.23 35.2,17.06 2.52,1.27 4.37,0.94 6.37,-0.44 1.11,-0.78 2.1,-1.77 2.96,-2.78 8.11,-9.36 13.58,-20.12 17.88,-31.43 2.42,-6.86 4.62,-13.66 3.65,-20.98 -0.1,-0.83 -0.73,-1.88 -1.47,-2.3 z M 5272.3,4292.2 c -1.95,-8 -6.02,-14.52 -13.14,-19.25 -4.11,-2.75 -8.05,-4.94 -13.13,-4.8 -3.65,0.11 -7.32,-0.99 -10.92,-0.78 -8.01,0.41 -15.97,1.29 -24.02,1.92 -15.18,1.17 -30.41,2.01 -45.67,3.56 -23.69,2.39 -47.34,5.02 -70.91,8 -19.44,2.48 -38.85,5.31 -58.07,8.61 -23.55,4.02 -46.6,10.05 -69.2,18.03 -25.21,8.92 -49.78,19.23 -71.78,34.82 -8.45,6.01 -16.6,12.43 -24.41,19.21 -9.96,8.82 -8.63,23.87 4.69,32.23 4.04,2.27 11.07,2.42 17.97,0.43 9.25,-2.62 18.16,-6.06 27.48,-8.79 17.71,-5.15 35.35,-10.61 53.28,-14.94 25.66,-6.21 51.33,-11.98 77.13,-16.94 20.04,-3.87 40.35,-6.43 60.54,-9.14 21.14,-2.8 42.48,-5.31 63.64,-7.42 23.28,-2.29 46.62,-3.83 69.88,-5.96 10.43,-0.98 17.99,-7.1 23.12,-15.65 4.3,-7.07 5.61,-15.08 3.52,-23.14 z m -522.27,-535.59 c -47.91,50.47 -23.98,137.08 -23.98,137.08 l -193.48,0 c 0,0 23.99,-76.34 -23.89,-126.78 -2.12,1.55 -84.56,43.63 -138.09,86.18 24.88,74.99 88.86,152.89 247.78,155.06 3.83,0.06 7.41,-0.08 10.96,-0.19 3.61,0.11 7.15,0.25 10.98,0.19 158.9,-2.17 222.91,-80.07 247.83,-155.06 -66.6,-53.87 -136.02,-94.89 -138.11,-96.48 z m -653.94,640.09 c -7.32,48.5 49.02,170.29 49.02,170.29 0,0 55.96,-90.06 78.37,-105.69 104.58,-73.14 186.32,-82.22 186.32,-82.22 l -58.53,-111.74 c 0,0 -237.43,12.07 -255.18,129.36 z m 666.39,-69.67 c 29.27,0.93 57.69,7.12 85.52,16.96 10.43,3.67 16.6,6.28 27.05,11.56 -0.29,-4.83 7.58,-6.18 8.07,-10.05 0.64,-5.43 -2.4,-5.97 -7.3,-7.96 -18.21,-7.3 -36.86,-12.84 -56.16,-15.86 -17.69,-2.76 -35.39,-4.17 -53.08,-2.35 -2.21,0.23 -4.46,1.37 -6.33,2.62 -0.9,0.64 -1.41,2.57 -1.19,3.79 0.06,0.6 2.19,1.26 3.42,1.29 z m 655.62,541.67 c 0.1,-0.18 0.2,-0.36 0.29,-0.52 30.16,30.75 64.71,69.01 101.57,115.16 121.6,152.23 112.34,364.75 45.62,469.98 -87.25,137.77 -219.65,153.13 -276.21,242.4 -41.09,64.8 7.46,124.99 7.46,124.99 0,0 -45.14,8.42 -78.1,-29.95 -28.56,-33.14 -54.13,-114.78 -2.86,-195.66 49.48,-78.07 65.63,-69.08 102.7,-127.55 25.92,-40.91 54.82,-95.25 -1.54,-160.75 -61.16,-71.08 -121.98,-33.2 -166.94,-11 -175.11,185.2 -374.96,280.94 -513.86,293.91 l 0,1.48 c -1.23,-0.07 -2.58,-0.22 -3.83,-0.34 -1.31,0.12 -2.58,0.27 -3.83,0.34 l 0,-1.48 C 4487.92,5576.6 4284.78,5478.77 4108.1,5289 c -44.08,-21.91 -101.18,-50.43 -157.94,16.42 -55.91,65.85 -26.65,120.06 -0.51,160.77 37.45,58.24 53.56,49.11 103.55,126.86 51.81,80.57 26.75,162.33 -1.62,195.68 -32.72,38.59 -77.91,30.47 -77.91,30.47 0,0 48.18,-60.51 6.68,-125.04 -57.19,-88.92 -189.62,-103.37 -277.74,-240.59 -67.41,-104.79 -78.08,-317.25 42.51,-470.27 36.63,-46.41 70.91,-84.87 100.84,-115.83 0.29,0.55 0.63,1.08 0.91,1.65 -49.66,-126.71 -85.44,-270.64 -100.14,-432.68 -30.41,-332.98 -0.51,-922.32 135.39,-1103.84 -22.37,141.81 -30.69,407.43 30.89,555.88 -10.3,-291.06 4.74,-750.5 152.53,-881.82 5.85,-5.95 -11.91,103.79 -13.96,288.18 -1.1,96.8 21.7,252.35 43.75,253.94 17.02,-611.8 138.7,-771.62 176.52,-777.34 -37.82,301.52 -30.55,415.92 -1.96,529.11 10.68,42.18 32.75,6.11 38.83,-135.53 24.78,-571.57 188.92,-587.53 188.92,-587.53 -38.69,201.9 -12.05,611.59 17.57,605.34 27.21,-5.74 35.86,-111.07 35.86,-199.05 0,-361.37 78.67,-459.11 78.67,-459.11 0,0 74.83,24.22 83.52,462.16 1.36,66.68 13.51,216.39 36.34,196 22.97,-20.39 56.23,-403.44 17.6,-605.34 0,0 164.08,15.96 188.91,587.53 6.09,141.64 28.14,177.71 38.77,135.53 28.57,-113.19 35.9,-227.59 -1.92,-529.11 37.82,5.72 159.48,165.54 176.45,777.34 22.09,-1.59 44.94,-157.14 43.83,-253.94 -2.07,-184.39 -19.81,-294.13 -13.97,-288.18 147.76,131.32 162.85,611.33 152.56,902.38 88.26,-257.8 11.54,-571.9 15.86,-567.38 135.9,181.54 180.76,761.8 150.41,1094.78 -14.71,161.88 -50.41,305.67 -100,432.26" /></g></g></svg>